# xmcd
#
# Track frame offsets: 
#        150
#        4996
#        24652
#        46359
#        64838
#        79008
#        93913
#        110669
#        128244
#        143251
#        162404
#        168162
#        186451
#        204873
#        224538
#
# Disc length: 3282 seconds
#
# Revision: 3
# Processed by: cddbd v1.5.2PL0 Copyright (c) Steve Scherf et al.
# Submitted via: ExactAudioCopy v1.3
#
DISCID=cc0cd00f
DTITLE=歐得洋 - 北半球有歐得洋
DYEAR=2004
DGENRE=Pop
TTITLE0=兩件事
TTITLE1=幸福車站
TTITLE2=咻咻咻
TTITLE3=孤單北半球
TTITLE4=浪漫群島
TTITLE5=力氣
TTITLE6=馬雅金字塔
TTITLE7=一人一半
TTITLE8=無尾熊
TTITLE9=朋友最近好嗎
TTITLE10=兩件事
TTITLE11=上弦月
TTITLE12=孤單北半球
TTITLE13=幸福車站
TTITLE14=咻咻咻
EXTD=
EXTT0=
EXTT1=
EXTT2=
EXTT3=
EXTT4=
EXTT5=
EXTT6=
EXTT7=
EXTT8=
EXTT9=
EXTT10=
EXTT11=
EXTT12=
EXTT13=
EXTT14=
PLAYORDER=
